Coordinates
version=1
nRows=18
nColumns=34
inDegrees=no

Units are S.I. units (second, meters, Newtons, ...)
If the header above contains a line with 'inDegrees', this indicates whether rotational values are in degrees (yes) or radians (no).

endheader
time	pelvis_tilt	pelvis_list	pelvis_rotation	pelvis_tx	pelvis_ty	pelvis_tz	hip_flexion_r	hip_adduction_r	hip_rotation_r	knee_angle_r	ankle_angle_r	subtalar_angle_r	mtp_angle_r	hip_flexion_l	hip_adduction_l	hip_rotation_l	knee_angle_l	ankle_angle_l	subtalar_angle_l	mtp_angle_l	lumbar_extension	lumbar_bending	lumbar_rotation	arm_flex_r	arm_add_r	arm_rot_r	elbow_flex_r	pro_sup_r	arm_flex_l	arm_add_l	arm_rot_l	elbow_flex_l	pro_sup_l
0	0.116427	-0.126988	0.0281905	-0.183643	0.917417	-0.578076	-0.115768	0.0891141	-0.129748	0.066202	0.223718	0.0831411	-0.141511	-0.121916	-0.368541	-0.169193	0.050767	0.164291	0.123839	-0.141511	-0.346456	0.155637	0.00913266	0.176911	-0.223773	-0.18053	2.1566	1.27127	0.189122	-0.100058	-0.134586	1.9763	1.55397
0.01	0.116584	-0.127087	0.0283189	-0.183652	0.917396	-0.578174	-0.115607	0.0889814	-0.130848	0.0666212	0.224062	0.0843525	-0.141511	-0.1225	-0.368422	-0.169125	0.0498355	0.164081	0.124146	-0.141511	-0.346311	0.15608	0.00881752	0.177368	-0.224224	-0.180677	2.15649	1.27162	0.189288	-0.0997846	-0.134404	1.97526	1.55845
0.02	0.116598	-0.127245	0.0282454	-0.183704	0.917375	-0.578255	-0.114894	0.0888548	-0.131816	0.0676522	0.224558	0.0854235	-0.141511	-0.122846	-0.368366	-0.169154	0.0490902	0.163862	0.124253	-0.141511	-0.346245	0.156597	0.00869755	0.178099	-0.224881	-0.180772	2.1565	1.27168	0.189562	-0.0995739	-0.134167	1.97409	1.56431
0.03	0.116464	-0.127458	0.02797	-0.183797	0.917354	-0.578319	-0.113619	0.0887334	-0.132648	0.0692987	0.225203	0.0863391	-0.141511	-0.122936	-0.368376	-0.169283	0.0485468	0.163642	0.124164	-0.141511	-0.346256	0.157187	0.0087675	0.179107	-0.225738	-0.180808	2.15662	1.27146	0.189943	-0.0994275	-0.133875	1.97283	1.57135
0.04	0.116159	-0.127723	0.0274934	-0.183935	0.917333	-0.578363	-0.111747	0.0886141	-0.133337	0.0715753	0.225991	0.0870565	-0.141511	-0.12271	-0.368453	-0.169523	0.0482596	0.163441	0.123898	-0.141511	-0.346332	0.157846	0.00901112	0.1804	-0.226784	-0.180765	2.15684	1.27104	0.190433	-0.0993479	-0.133531	1.97155	1.57902
0.05	0.115634	-0.128027	0.0268168	-0.184123	0.917311	-0.578384	-0.109196	0.0884906	-0.133874	0.0745148	0.22691	0.0875005	-0.141511	-0.122033	-0.368605	-0.169892	0.0483419	0.163302	0.1235	-0.141511	-0.346441	0.158564	0.00939863	0.181993	-0.227991	-0.180609	2.15714	1.27052	0.191035	-0.0993381	-0.133145	1.97039	1.58639
0.06	0.114795	-0.128356	0.0259433	-0.18437	0.917281	-0.578377	-0.105822	0.0883526	-0.13425	0.0781728	0.227945	0.0875679	-0.141511	-0.120676	-0.368847	-0.170416	0.0489763	0.163286	0.123042	-0.141511	-0.346514	0.15933	0.00988814	0.183908	-0.229326	-0.180294	2.15748	1.27003	0.191762	-0.0994	-0.132754	1.96947	1.59261
0.07	0.113503	-0.128688	0.0248818	-0.184686	0.917234	-0.578339	-0.101412	0.088183	-0.134468	0.0826317	0.229084	0.0871393	-0.141511	-0.118307	-0.369198	-0.171124	0.0504114	0.163477	0.122635	-0.141511	-0.346446	0.160131	0.0104288	0.186179	-0.230755	-0.179769	2.15784	1.26967	0.192638	-0.0995367	-0.132415	1.96886	1.59717
0.08	0.111573	-0.128993	0.0236492	-0.185086	0.917156	-0.578266	-0.0956782	0.0879527	-0.134552	0.0880105	0.230327	0.0860982	-0.141511	-0.114507	-0.36968	-0.172059	0.0529436	0.16397	0.122436	-0.141511	-0.346086	0.160949	0.0109643	0.188841	-0.232256	-0.178983	2.15818	1.26952	0.193692	-0.0997555	-0.132193	1.96858	1.59989
0.09	0.108786	-0.129231	0.0222701	-0.185587	0.917031	-0.578156	-0.088272	0.0876128	-0.134549	0.094476	0.231692	0.0843461	-0.141511	-0.108804	-0.370307	-0.173268	0.0568815	0.164864	0.122642	-0.141511	-0.345245	0.161761	0.0114379	0.19193	-0.233819	-0.177896	2.15851	1.26964	0.194954	-0.100069	-0.132138	1.9686	1.60087
0.1	0.104915	-0.129345	0.020774	-0.186204	0.916838	-0.578009	-0.078814	0.0870923	-0.134518	0.102239	0.233216	0.0818012	-0.141511	-0.100739	-0.371071	-0.174795	0.0624946	0.166236	0.123457	-0.141511	-0.343724	0.16253	0.0117938	0.195477	-0.235452	-0.176483	2.15881	1.27008	0.196454	-0.100498	-0.132269	1.96886	1.60038
0.11	0.0997672	-0.129266	0.0191972	-0.18695	0.916559	-0.577824	-0.0669576	0.086302	-0.134498	0.111525	0.234937	0.0783796	-0.141511	-0.0899558	-0.371934	-0.17662	0.069949	0.168103	0.124992	-0.141511	-0.341351	0.1632	0.0119772	0.199511	-0.23717	-0.174729	2.15909	1.27085	0.198212	-0.101074	-0.132562	1.96933	1.5987
0.12	0.093211	-0.128912	0.0175821	-0.187837	0.916178	-0.577601	-0.052441	0.0851437	-0.134489	0.122537	0.236877	0.0739855	-0.141511	-0.0762509	-0.372821	-0.17864	0.0792724	0.170402	0.127219	-0.141511	-0.33801	0.163698	0.0119325	0.204059	-0.238994	-0.172629	2.15936	1.27195	0.200254	-0.101839	-0.13296	1.97	1.59603
0.13	0.0851894	-0.128193	0.0159734	-0.188873	0.915683	-0.577341	-0.0351131	0.0835181	-0.13444	0.135431	0.239035	0.0685092	-0.141511	-0.0595939	-0.373619	-0.180677	0.0903562	0.172995	0.129964	-0.141511	-0.333657	0.163931	0.011606	0.209141	-0.240934	-0.170173	2.15965	1.27337	0.202605	-0.102842	-0.133395	1.97088	1.59251
0.14	0.0757157	-0.127014	0.0144102	-0.190062	0.915064	-0.577044	-0.0149384	0.0813319	-0.13425	0.150293	0.241382	0.0618419	-0.141511	-0.0401082	-0.374195	-0.182516	0.102986	0.175704	0.132962	-0.141511	-0.328317	0.163792	0.0109529	0.214772	-0.242987	-0.167356	2.16001	1.27505	0.205302	-0.104124	-0.133798	1.97202	1.58821
0.15	0.0648638	-0.125286	0.0129221	-0.191407	0.914316	-0.576708	0.00801543	0.0785056	-0.133783	0.167148	0.243875	0.0539037	-0.141511	-0.0180303	-0.374405	-0.183983	0.116899	0.178354	0.135963	-0.141511	-0.322075	0.163172	0.00994625	0.220955	-0.245131	-0.164184	2.16047	1.27695	0.208391	-0.10571	-0.134116	1.97349	1.58312
0.16	0.052775	-0.122925	0.0115332	-0.192907	0.913435	-0.576333	0.0335676	0.0749745	-0.132896	0.185951	0.246466	0.0446742	-0.141511	0.0062957	-0.374106	-0.184931	0.131802	0.180788	0.138706	-0.141511	-0.315082	0.161964	0.00858107	0.227694	-0.247339	-0.160682	2.16109	1.27899	0.211939	-0.107603	-0.134304	1.97534	1.57727
0.17	0.0396539	-0.119867	0.0102693	-0.194559	0.912424	-0.575917	0.061434	0.0706937	-0.131459	0.206598	0.249116	0.0342083	-0.141511	0.0324457	-0.373166	-0.185241	0.147407	0.182872	0.140939	-0.141511	-0.30755	0.160073	0.00687711	0.234987	-0.249596	-0.156892	2.16192	1.28106	0.216032	-0.109795	-0.134315	1.97757	1.57081
